<?xml version="1.0" encoding="UTF-8"?>
<svg width="512" height="512" viewBox="0 0 512 512" fill="none" xmlns="http://www.w3.org/2000/svg">
  <!-- Background Circle with Gradient -->
  <circle cx="256" cy="256" r="240" fill="url(#gradient)" />
  
  <!-- Token Symbol in Center -->
  <circle cx="256" cy="256" r="120" fill="white" fill-opacity="0.1" />
  <path d="M256 136C190.562 136 136 190.562 136 256C136 321.438 190.562 376 256 376C321.438 376 376 321.438 376 256C376 190.562 321.438 136 256 136ZM256 344C208.562 344 168 303.438 168 256C168 208.562 208.562 168 256 168C303.438 168 344 208.562 344 256C344 303.438 303.438 344 256 344Z" fill="white"/>
  
  <!-- Connection Lines -->
  <path d="M256 136L256 168" stroke="white" stroke-width="8" stroke-linecap="round"/>
  <path d="M256 344L256 376" stroke="white" stroke-width="8" stroke-linecap="round"/>
  <path d="M136 256L168 256" stroke="white" stroke-width="8" stroke-linecap="round"/>
  <path d="M344 256L376 256" stroke="white" stroke-width="8" stroke-linecap="round"/>
  
  <!-- Community Dots -->
  <circle cx="256" cy="96" r="16" fill="white"/>
  <circle cx="256" cy="416" r="16" fill="white"/>
  <circle cx="96" cy="256" r="16" fill="white"/>
  <circle cx="416" cy="256" r="16" fill="white"/>
  
  <!-- Gradient Definition -->
  <defs>
    <linearGradient id="gradient" x1="0" y1="0" x2="512" y2="512" gradientUnits="userSpaceOnUse">
      <stop offset="0%" stop-color="#8B45FD"/>
      <stop offset="100%" stop-color="#93BBFB"/>
    </linearGradient>
  </defs>
</svg>